<svg xmlns="http://www.w3.org/2000/svg" viewBox="0 0 850 500" font-family="monospace" font-size="12">
  <defs>
    <style>
      @media (prefers-color-scheme: dark) {
        .bg { fill: #1a1a2e; }
        .text { fill: #e0e0e0; }
        .text-dim { fill: #999; }
        .wire { stroke: #ccc; stroke-width: 1.5; fill: none; }
        .wire-pwr { stroke: #ff6b6b; stroke-width: 2; fill: none; }
        .wire-gnd { stroke: #74b9ff; stroke-width: 2; fill: none; }
        .wire-sig { stroke: #a29bfe; stroke-width: 1.5; fill: none; }
        .wire-ctrl { stroke: #55efc4; stroke-width: 1.5; fill: none; }
        .comp { fill: #2a3a4e; stroke: #5a7a9e; stroke-width: 1.5; }
        .comp-bms { fill: #2a4a3e; stroke: #4a8a6e; stroke-width: 1.5; }
        .comp-buck { fill: #3a3a2e; stroke: #8a8a5e; stroke-width: 1.5; }
        .comp-mcu { fill: #1e3a5e; stroke: #4e7aae; stroke-width: 1.5; }
        .comp-mosfet { fill: #2e3a2e; stroke: #6a9a6a; stroke-width: 1.5; }
        .legend-bg { fill: #22223a; stroke: #444; }
      }
      @media (prefers-color-scheme: light) {
        .bg { fill: #ffffff; }
        .text { fill: #333; }
        .text-dim { fill: #999; }
        .wire { stroke: #333; stroke-width: 1.5; fill: none; }
        .wire-pwr { stroke: #c0392b; stroke-width: 2; fill: none; }
        .wire-gnd { stroke: #2c3e50; stroke-width: 2; fill: none; }
        .wire-sig { stroke: #2980b9; stroke-width: 1.5; fill: none; }
        .wire-ctrl { stroke: #00b894; stroke-width: 1.5; fill: none; }
        .comp { fill: #ecf0f1; stroke: #7f8c8d; stroke-width: 1.5; }
        .comp-bms { fill: #d5f5e3; stroke: #27ae60; stroke-width: 1.5; }
        .comp-buck { fill: #fef9e7; stroke: #f39c12; stroke-width: 1.5; }
        .comp-mcu { fill: #d6eaf8; stroke: #2980b9; stroke-width: 1.5; }
        .comp-mosfet { fill: #e8f8f5; stroke: #1abc9c; stroke-width: 1.5; }
        .legend-bg { fill: #f8f9fa; stroke: #ddd; }
      }
    </style>
  </defs>

  <rect width="850" height="500" class="bg" rx="4"/>

  <!-- Title -->
  <text x="425" y="28" text-anchor="middle" font-size="15" font-weight="bold" class="text">Battery Monitoring — Schematic (ESP8266 / 2S LiPo, with MOSFET switch)</text>

  <!-- ==================== BATTERY SYMBOL ==================== -->
  <line x1="60" y1="70" x2="60" y2="90" class="wire-pwr"/>
  <text x="45" y="78" text-anchor="end" font-size="10" font-weight="bold" class="text">+</text>
  <line x1="45" y1="90" x2="75" y2="90" stroke-width="3" class="wire-pwr"/>
  <line x1="50" y1="100" x2="70" y2="100" stroke-width="1.5" class="wire"/>
  <line x1="60" y1="100" x2="60" y2="115" class="wire"/>
  <circle cx="60" cy="108" r="3" fill="#a29bfe"/>
  <line x1="60" y1="108" x2="85" y2="108" class="wire"/>
  <text x="90" y="112" font-size="9" class="text-dim">BM (mid)</text>
  <line x1="45" y1="115" x2="75" y2="115" stroke-width="3" class="wire-pwr"/>
  <line x1="50" y1="125" x2="70" y2="125" stroke-width="1.5" class="wire"/>
  <line x1="60" y1="125" x2="60" y2="145" class="wire-gnd"/>
  <text x="45" y="143" text-anchor="end" font-size="10" font-weight="bold" class="text">-</text>
  <text x="60" y="60" text-anchor="middle" font-size="11" font-weight="bold" class="text">V_bat</text>
  <text x="20" y="108" text-anchor="middle" font-size="9" class="text-dim" transform="rotate(-90,20,108)">7.4V nom</text>

  <!-- ==================== BMS BLOCK ==================== -->
  <rect x="155" y="55" width="100" height="105" rx="4" class="comp-bms"/>
  <text x="205" y="100" text-anchor="middle" font-size="12" font-weight="bold" class="text">BMS</text>
  <text x="205" y="116" text-anchor="middle" font-size="9" class="text-dim">2S</text>
  <text x="161" y="78" font-size="9" class="text">B+</text>
  <text x="161" y="108" font-size="9" class="text">BM</text>
  <text x="161" y="148" font-size="9" class="text">B-</text>
  <text x="235" y="78" font-size="9" class="text">P+</text>
  <text x="235" y="148" font-size="9" class="text">P-</text>

  <!-- Battery to BMS wires -->
  <line x1="60" y1="70" x2="130" y2="70" class="wire-pwr"/>
  <line x1="130" y1="70" x2="130" y2="75" class="wire-pwr"/>
  <line x1="130" y1="75" x2="155" y2="75" class="wire-pwr"/>
  <line x1="85" y1="108" x2="130" y2="108" class="wire"/>
  <line x1="130" y1="105" x2="155" y2="105" class="wire"/>
  <line x1="130" y1="105" x2="130" y2="108" class="wire"/>
  <line x1="60" y1="145" x2="130" y2="145" class="wire-gnd"/>
  <line x1="130" y1="145" x2="155" y2="145" class="wire-gnd"/>

  <!-- BMS outputs -->
  <line x1="255" y1="75" x2="310" y2="75" class="wire-pwr"/>
  <text x="283" y="65" text-anchor="middle" font-size="10" font-weight="bold" class="text">6.0-8.4V</text>
  <line x1="255" y1="145" x2="310" y2="145" class="wire-gnd"/>

  <!-- ==================== VOLTAGE DIVIDER ==================== -->
  <circle cx="310" cy="75" r="3" class="wire-pwr" fill="currentColor"/>
  <line x1="310" y1="75" x2="310" y2="115" class="wire-pwr"/>

  <!-- R1 (22k) -->
  <polyline points="310,115 303,121 317,127 303,133 317,139 303,145 317,151 303,157 310,163" class="comp" fill="none"/>
  <text x="325" y="136" font-size="10" font-weight="bold" class="text">R1</text>
  <text x="325" y="150" font-size="9" class="text-dim">22k</text>

  <!-- Junction node (signal tap) -->
  <line x1="310" y1="163" x2="310" y2="185" class="wire"/>
  <circle cx="310" cy="185" r="4" fill="#a29bfe"/>

  <!-- R2 (12k) -->
  <line x1="310" y1="185" x2="310" y2="207" class="wire"/>
  <polyline points="310,207 303,213 317,219 303,225 317,231 303,237 317,243 303,249 310,255" class="comp" fill="none"/>
  <text x="325" y="228" font-size="10" font-weight="bold" class="text">R2</text>
  <text x="325" y="242" font-size="9" class="text-dim">12k</text>

  <!-- ==================== N-MOSFET Q1 ==================== -->
  <line x1="310" y1="255" x2="310" y2="275" class="wire"/>

  <!-- MOSFET symbol (simplified) -->
  <rect x="293" y="275" width="34" height="40" rx="4" class="comp-mosfet"/>
  <text x="310" y="293" text-anchor="middle" font-size="9" font-weight="bold" class="text">Q1</text>
  <text x="310" y="307" text-anchor="middle" font-size="8" class="text-dim">N-MOS</text>

  <!-- MOSFET labels -->
  <text x="310" y="272" text-anchor="middle" font-size="8" class="text-dim">D</text>
  <text x="310" y="325" text-anchor="middle" font-size="8" class="text-dim">S</text>
  <text x="282" y="298" text-anchor="end" font-size="8" class="text-dim">G</text>

  <!-- Gate wire -->
  <line x1="293" y1="295" x2="240" y2="295" class="wire-ctrl"/>
  <line x1="240" y1="295" x2="240" y2="380" class="wire-ctrl"/>
  <line x1="240" y1="380" x2="775" y2="380" class="wire-ctrl"/>

  <!-- Source to GND -->
  <line x1="310" y1="315" x2="310" y2="340" class="wire-gnd"/>

  <!-- GND rail -->
  <line x1="255" y1="145" x2="255" y2="340" class="wire-gnd"/>
  <line x1="255" y1="340" x2="310" y2="340" class="wire-gnd"/>

  <!-- GND symbol -->
  <line x1="283" y1="340" x2="283" y2="360" class="wire-gnd"/>
  <line x1="268" y1="360" x2="298" y2="360" stroke-width="2" class="wire-gnd"/>
  <line x1="272" y1="366" x2="294" y2="366" stroke-width="1.5" class="wire-gnd"/>
  <line x1="276" y1="372" x2="290" y2="372" stroke-width="1" class="wire-gnd"/>

  <!-- Voltage annotation -->
  <rect x="345" y="176" width="95" height="20" rx="4" class="legend-bg"/>
  <text x="392" y="190" text-anchor="middle" font-size="9" class="text">2.12 - 2.96V</text>

  <!-- ==================== SIGNAL WIRE TO ESP ==================== -->
  <line x1="310" y1="185" x2="440" y2="185" class="wire-sig"/>
  <line x1="440" y1="185" x2="510" y2="185" class="wire-sig"/>

  <!-- ==================== BUCK CONVERTER ==================== -->
  <line x1="310" y1="75" x2="510" y2="75" class="wire-pwr"/>
  <line x1="310" y1="340" x2="460" y2="340" class="wire-gnd"/>
  <line x1="460" y1="340" x2="460" y2="250" class="wire-gnd"/>
  <line x1="460" y1="250" x2="510" y2="250" class="wire-gnd"/>

  <rect x="510" y="55" width="120" height="215" rx="4" class="comp-buck"/>
  <text x="570" y="150" text-anchor="middle" font-size="12" font-weight="bold" class="text">MP1584</text>
  <text x="570" y="168" text-anchor="middle" font-size="9" class="text-dim">Buck</text>
  <text x="570" y="183" text-anchor="middle" font-size="9" class="text-dim">Converter</text>
  <text x="516" y="78" font-size="9" class="text">IN+</text>
  <text x="516" y="253" font-size="9" class="text">IN-</text>
  <text x="608" y="78" font-size="9" class="text">OUT+</text>
  <text x="608" y="253" font-size="9" class="text">OUT-</text>

  <line x1="630" y1="75" x2="700" y2="75" class="wire-pwr"/>
  <line x1="630" y1="250" x2="700" y2="250" class="wire-gnd"/>
  <text x="665" y="65" text-anchor="middle" font-size="11" font-weight="bold" class="text">5.0V</text>

  <!-- ==================== CAPACITOR ==================== -->
  <line x1="700" y1="75" x2="700" y2="140" class="wire-pwr"/>
  <line x1="690" y1="140" x2="710" y2="140" stroke-width="3" class="wire"/>
  <line x1="690" y1="148" x2="710" y2="148" stroke-width="3" class="wire"/>
  <text x="716" y="138" font-size="9" font-weight="bold" fill="#e74c3c">+</text>
  <line x1="700" y1="148" x2="700" y2="250" class="wire-gnd"/>
  <circle cx="700" cy="250" r="3" class="wire-gnd" fill="currentColor"/>
  <text x="718" y="150" font-size="10" font-weight="bold" class="text">C1</text>
  <text x="718" y="164" font-size="9" class="text-dim">100uF</text>

  <line x1="700" y1="75" x2="775" y2="75" class="wire-pwr"/>
  <circle cx="700" cy="75" r="3" class="wire-pwr" fill="currentColor"/>
  <line x1="700" y1="250" x2="775" y2="250" class="wire-gnd"/>

  <!-- ==================== ESP8266 BLOCK ==================== -->
  <rect x="775" y="55" width="55" height="340" rx="4" class="comp-mcu"/>
  <text x="802" y="180" text-anchor="middle" font-size="10" font-weight="bold" class="text" transform="rotate(-90,802,180)">ESP8266</text>

  <text x="768" y="78" text-anchor="end" font-size="9" class="text">5V</text>
  <text x="768" y="188" text-anchor="end" font-size="9" class="text">A0</text>
  <text x="768" y="253" text-anchor="end" font-size="9" class="text">GND</text>
  <text x="768" y="383" text-anchor="end" font-size="9" font-weight="bold" class="text">D3</text>

  <!-- Signal wire to A0 -->
  <line x1="510" y1="185" x2="775" y2="185" class="wire-sig"/>

  <!-- GND at ESP -->
  <line x1="775" y1="250" x2="775" y2="410" class="wire-gnd"/>
  <line x1="763" y1="410" x2="787" y2="410" stroke-width="2" class="wire-gnd"/>
  <line x1="767" y1="416" x2="783" y2="416" stroke-width="1.5" class="wire-gnd"/>
  <line x1="771" y1="422" x2="779" y2="422" stroke-width="1" class="wire-gnd"/>

  <!-- ==================== FORMULA BOX ==================== -->
  <rect x="470" y="420" width="360" height="55" rx="4" class="legend-bg"/>
  <text x="650" y="440" text-anchor="middle" font-size="11" font-weight="bold" class="text">Divider Formula (when Q1 ON)</text>
  <text x="650" y="456" text-anchor="middle" font-size="10" class="text">V_A0 = V_bat x R2 / (R1 + R2) = V_bat x 0.353</text>
  <text x="650" y="470" text-anchor="middle" font-size="9" class="text-dim">Q1 OFF (deep sleep) → divider disconnected → 0µA drain</text>

  <!-- ==================== LEGEND ==================== -->
  <rect x="20" y="420" width="430" height="55" rx="4" class="legend-bg"/>
  <text x="32" y="440" font-size="10" font-weight="bold" class="text">Legend</text>
  <line x1="32" y1="455" x2="55" y2="455" class="wire-pwr" stroke-width="2"/>
  <text x="60" y="459" font-size="9" class="text">V+</text>
  <line x1="90" y1="455" x2="113" y2="455" class="wire-gnd" stroke-width="2"/>
  <text x="118" y="459" font-size="9" class="text">GND</text>
  <line x1="150" y1="455" x2="173" y2="455" class="wire-sig" stroke-width="2"/>
  <text x="178" y="459" font-size="9" class="text">Signal (ADC)</text>
  <line x1="270" y1="455" x2="293" y2="455" class="wire-ctrl" stroke-width="2"/>
  <text x="298" y="459" font-size="9" class="text">Control (D3)</text>
  <text x="32" y="472" font-size="9" class="text-dim">Q1: 2N7000, BS170, or any logic-level N-MOSFET (Vgs(th) &lt; 2V)</text>
</svg>
