<svg xmlns="http://www.w3.org/2000/svg" viewBox="0 0 850 620" font-family="monospace" font-size="12">
  <defs>
    <style>
      @media (prefers-color-scheme: dark) {
        .bg { fill: #1a1a2e; }
        .text { fill: #e0e0e0; }
        .text-dim { fill: #999; }
        .wire { stroke: #ccc; stroke-width: 1.5; fill: none; }
        .wire-pwr { stroke: #ff6b6b; stroke-width: 2; fill: none; }
        .wire-gnd { stroke: #74b9ff; stroke-width: 2; fill: none; }
        .wire-sig { stroke: #a29bfe; stroke-width: 1.5; fill: none; }
        .wire-ctrl { stroke: #55efc4; stroke-width: 1.5; fill: none; }
        .comp { fill: #2a3a4e; stroke: #5a7a9e; stroke-width: 1.5; }
        .comp-bms { fill: #2a4a3e; stroke: #4a8a6e; stroke-width: 1.5; }
        .comp-buck { fill: #3a3a2e; stroke: #8a8a5e; stroke-width: 1.5; }
        .comp-cap { fill: #4a3a2e; stroke: #9a7a5e; stroke-width: 1.5; }
        .comp-cell { fill: #3e3a2a; stroke: #8e8a5a; stroke-width: 1.5; }
        .comp-mcu { fill: #1e3a5e; stroke: #4e7aae; stroke-width: 1.5; }
        .comp-mosfet { fill: #2e3a2e; stroke: #6a9a6a; stroke-width: 1.5; }
        .legend-bg { fill: #22223a; stroke: #444; }
      }
      @media (prefers-color-scheme: light) {
        .bg { fill: #ffffff; }
        .text { fill: #333; }
        .text-dim { fill: #999; }
        .wire { stroke: #333; stroke-width: 1.5; fill: none; }
        .wire-pwr { stroke: #c0392b; stroke-width: 2; fill: none; }
        .wire-gnd { stroke: #2c3e50; stroke-width: 2; fill: none; }
        .wire-sig { stroke: #2980b9; stroke-width: 1.5; fill: none; }
        .wire-ctrl { stroke: #00b894; stroke-width: 1.5; fill: none; }
        .comp { fill: #ecf0f1; stroke: #7f8c8d; stroke-width: 1.5; }
        .comp-bms { fill: #d5f5e3; stroke: #27ae60; stroke-width: 1.5; }
        .comp-buck { fill: #fef9e7; stroke: #f39c12; stroke-width: 1.5; }
        .comp-cap { fill: #fdebd0; stroke: #e67e22; stroke-width: 1.5; }
        .comp-cell { fill: #fef9e7; stroke: #d4ac0d; stroke-width: 1.5; }
        .comp-mcu { fill: #d6eaf8; stroke: #2980b9; stroke-width: 1.5; }
        .comp-mosfet { fill: #e8f8f5; stroke: #1abc9c; stroke-width: 1.5; }
        .legend-bg { fill: #f8f9fa; stroke: #ddd; }
      }
    </style>
  </defs>

  <rect width="850" height="620" class="bg" rx="4"/>

  <!-- Title -->
  <text x="425" y="28" text-anchor="middle" font-size="15" font-weight="bold" class="text">Battery Monitoring — ESP8266 Wiring Diagram (with MOSFET switch)</text>

  <!-- ==================== 2S BATTERY PACK ==================== -->
  <text x="90" y="60" text-anchor="middle" font-size="12" font-weight="bold" class="text">2S 18650 Pack</text>

  <!-- Cell 1 -->
  <rect x="30" y="75" width="120" height="70" rx="4" class="comp-cell"/>
  <rect x="150" y="90" width="8" height="40" rx="3" class="comp-cell"/>
  <text x="90" y="100" text-anchor="middle" font-size="11" font-weight="bold" class="text">Cell #1</text>
  <text x="90" y="115" text-anchor="middle" font-size="9" class="text-dim">3.7V nominal</text>
  <text x="42" y="93" font-size="12" font-weight="bold" fill="#3498db">-</text>
  <text x="130" y="140" font-size="12" font-weight="bold" fill="#e74c3c">+</text>

  <!-- Series connection -->
  <line x1="90" y1="145" x2="90" y2="175" class="wire"/>
  <circle cx="90" cy="160" r="4" fill="#f39c12"/>
  <text x="115" y="164" font-size="10" font-weight="bold" class="text">MID</text>
  <text x="155" y="164" font-size="9" class="text-dim">~3.7V</text>

  <!-- Cell 2 -->
  <rect x="30" y="175" width="120" height="70" rx="4" class="comp-cell"/>
  <rect x="150" y="190" width="8" height="40" rx="3" class="comp-cell"/>
  <text x="90" y="200" text-anchor="middle" font-size="11" font-weight="bold" class="text">Cell #2</text>
  <text x="90" y="215" text-anchor="middle" font-size="9" class="text-dim">3.7V nominal</text>
  <text x="42" y="193" font-size="12" font-weight="bold" fill="#3498db">-</text>
  <text x="130" y="240" font-size="12" font-weight="bold" fill="#e74c3c">+</text>

  <!-- ==================== BMS 2S ==================== -->
  <rect x="220" y="80" width="130" height="170" rx="4" class="comp-bms"/>
  <text x="285" y="110" text-anchor="middle" font-size="13" font-weight="bold" class="text">BMS 2S</text>
  <text x="285" y="128" text-anchor="middle" font-size="9" class="text-dim">Protection PCB</text>
  <text x="228" y="158" font-size="10" font-weight="bold" class="text">B+</text>
  <text x="228" y="178" font-size="10" font-weight="bold" class="text">BM</text>
  <text x="228" y="198" font-size="10" font-weight="bold" class="text">B-</text>
  <text x="322" y="158" font-size="10" font-weight="bold" class="text">P+</text>
  <text x="322" y="198" font-size="10" font-weight="bold" class="text">P-</text>

  <!-- Battery to BMS wires -->
  <line x1="30" y1="88" x2="15" y2="88" class="wire-gnd"/>
  <line x1="15" y1="88" x2="15" y2="220" class="wire-gnd"/>
  <line x1="15" y1="220" x2="200" y2="220" class="wire-gnd"/>
  <line x1="200" y1="220" x2="200" y2="194" class="wire-gnd"/>
  <line x1="200" y1="194" x2="220" y2="194" class="wire-gnd"/>
  <line x1="90" y1="160" x2="90" y2="174" class="wire"/>
  <line x1="200" y1="174" x2="220" y2="174" class="wire"/>
  <line x1="90" y1="174" x2="200" y2="174" class="wire"/>
  <line x1="158" y1="210" x2="170" y2="210" class="wire-pwr"/>
  <line x1="170" y1="210" x2="170" y2="235" class="wire-pwr"/>
  <line x1="170" y1="235" x2="205" y2="235" class="wire-pwr"/>
  <line x1="205" y1="235" x2="205" y2="154" class="wire-pwr"/>
  <line x1="205" y1="154" x2="220" y2="154" class="wire-pwr"/>

  <!-- BMS output wires -->
  <line x1="350" y1="154" x2="390" y2="154" class="wire-pwr"/>
  <text x="370" y="145" text-anchor="middle" font-size="9" class="text-dim">6.0-8.4V</text>
  <line x1="350" y1="194" x2="390" y2="194" class="wire-gnd"/>

  <!-- ==================== VOLTAGE DIVIDER with MOSFET ==================== -->
  <!-- Junction from P+ -->
  <line x1="390" y1="154" x2="440" y2="154" class="wire-pwr"/>
  <circle cx="440" cy="154" r="3" class="wire-pwr" fill="currentColor"/>
  <line x1="440" y1="154" x2="440" y2="270" class="wire-pwr"/>

  <!-- R1 (22k) -->
  <rect x="425" y="270" width="30" height="60" rx="4" class="comp"/>
  <text x="440" y="297" text-anchor="middle" font-size="9" class="text">R1</text>
  <text x="440" y="310" text-anchor="middle" font-size="8" class="text-dim">22k</text>
  <rect x="425" y="276" width="30" height="3" fill="#e74c3c"/>
  <rect x="425" y="282" width="30" height="3" fill="#e74c3c"/>
  <rect x="425" y="288" width="30" height="3" fill="#e67e22"/>

  <!-- Mid-point (signal tap) -->
  <line x1="440" y1="330" x2="440" y2="355" class="wire"/>
  <circle cx="440" cy="355" r="4" fill="#a29bfe"/>
  <text x="465" y="350" font-size="10" font-weight="bold" class="text">MID</text>
  <text x="465" y="365" font-size="9" class="text-dim">2.12-2.96V</text>

  <!-- R2 (12k) -->
  <line x1="440" y1="355" x2="440" y2="385" class="wire"/>
  <rect x="425" y="385" width="30" height="60" rx="4" class="comp"/>
  <text x="440" y="412" text-anchor="middle" font-size="9" class="text">R2</text>
  <text x="440" y="425" text-anchor="middle" font-size="8" class="text-dim">12k</text>
  <rect x="425" y="391" width="30" height="3" fill="#8b4513"/>
  <rect x="425" y="397" width="30" height="3" fill="#e74c3c"/>
  <rect x="425" y="403" width="30" height="3" fill="#e74c3c"/>

  <!-- R2 to MOSFET drain -->
  <line x1="440" y1="445" x2="440" y2="465" class="wire"/>

  <!-- ==================== N-MOSFET SWITCH ==================== -->
  <rect x="415" y="465" width="50" height="40" rx="4" class="comp-mosfet"/>
  <text x="440" y="483" text-anchor="middle" font-size="9" font-weight="bold" class="text">Q1</text>
  <text x="440" y="497" text-anchor="middle" font-size="8" class="text-dim">2N7000</text>

  <!-- MOSFET pin labels -->
  <text x="413" y="477" text-anchor="end" font-size="8" class="text-dim">G</text>
  <text x="443" y="463" font-size="8" class="text-dim">D</text>
  <text x="443" y="514" font-size="8" class="text-dim">S</text>

  <!-- Gate wire from MCU D3 -->
  <line x1="415" y1="480" x2="370" y2="480" class="wire-ctrl"/>
  <line x1="370" y1="480" x2="370" y2="435" class="wire-ctrl"/>
  <line x1="370" y1="435" x2="566" y2="435" class="wire-ctrl"/>

  <!-- Source to GND -->
  <line x1="440" y1="505" x2="440" y2="530" class="wire-gnd"/>

  <!-- GND rail -->
  <line x1="390" y1="194" x2="390" y2="530" class="wire-gnd"/>
  <line x1="390" y1="530" x2="440" y2="530" class="wire-gnd"/>

  <!-- GND symbol -->
  <line x1="415" y1="530" x2="415" y2="550" class="wire-gnd"/>
  <line x1="400" y1="550" x2="430" y2="550" stroke-width="2" class="wire-gnd"/>
  <line x1="404" y1="556" x2="426" y2="556" stroke-width="1.5" class="wire-gnd"/>
  <line x1="408" y1="562" x2="422" y2="562" stroke-width="1" class="wire-gnd"/>
  <text x="415" y="577" text-anchor="middle" font-size="10" class="text-dim">GND</text>

  <!-- ==================== MP1584 BUCK CONVERTER ==================== -->
  <line x1="440" y1="154" x2="530" y2="154" class="wire-pwr"/>
  <line x1="390" y1="194" x2="530" y2="194" class="wire-gnd"/>

  <rect x="530" y="130" width="130" height="85" rx="4" class="comp-buck"/>
  <text x="595" y="158" text-anchor="middle" font-size="12" font-weight="bold" class="text">MP1584</text>
  <text x="595" y="175" text-anchor="middle" font-size="9" class="text-dim">Buck Converter</text>
  <text x="595" y="190" text-anchor="middle" font-size="9" class="text-dim">Set to 5.0V</text>
  <text x="536" y="152" font-size="9" class="text">IN+</text>
  <text x="536" y="195" font-size="9" class="text">IN-</text>
  <text x="635" y="152" font-size="9" class="text">OUT+</text>
  <text x="635" y="195" font-size="9" class="text">OUT-</text>

  <line x1="660" y1="148" x2="700" y2="148" class="wire-pwr"/>
  <line x1="660" y1="191" x2="700" y2="191" class="wire-gnd"/>

  <!-- ==================== CAPACITOR ==================== -->
  <line x1="700" y1="148" x2="700" y2="160" class="wire-pwr"/>
  <line x1="690" y1="160" x2="710" y2="160" stroke-width="3" class="wire"/>
  <line x1="690" y1="168" x2="710" y2="168" stroke-width="3" class="wire"/>
  <text x="717" y="163" font-size="8" font-weight="bold" fill="#e74c3c">+</text>
  <line x1="700" y1="168" x2="700" y2="191" class="wire-gnd"/>
  <circle cx="700" cy="191" r="3" class="wire-gnd" fill="currentColor"/>
  <text x="718" y="180" font-size="9" font-weight="bold" class="text">C1</text>
  <text x="740" y="180" font-size="8" class="text-dim">100uF</text>

  <line x1="700" y1="148" x2="735" y2="148" class="wire-pwr"/>
  <circle cx="700" cy="148" r="3" class="wire-pwr" fill="currentColor"/>
  <line x1="700" y1="191" x2="735" y2="191" class="wire-gnd"/>
  <text x="720" y="140" text-anchor="middle" font-size="10" font-weight="bold" class="text">5.0V</text>

  <!-- ==================== WEMOS D1 MINI ==================== -->
  <rect x="560" y="270" width="250" height="260" rx="4" class="comp-mcu"/>
  <text x="685" y="300" text-anchor="middle" font-size="14" font-weight="bold" class="text">Wemos D1 Mini</text>
  <text x="685" y="318" text-anchor="middle" font-size="10" class="text-dim">ESP8266</text>

  <!-- Left side pins -->
  <rect x="566" y="345" width="50" height="20" rx="4" fill="#f39c12" stroke="none"/>
  <text x="591" y="359" text-anchor="middle" font-size="10" font-weight="bold" fill="#fff">A0</text>

  <rect x="566" y="380" width="50" height="20" rx="4" class="comp"/>
  <text x="591" y="394" text-anchor="middle" font-size="9" class="text">D0</text>

  <rect x="566" y="415" width="50" height="20" rx="4" fill="#00b894" stroke="none"/>
  <text x="591" y="429" text-anchor="middle" font-size="10" font-weight="bold" fill="#fff">D3</text>

  <rect x="566" y="450" width="50" height="20" rx="4" class="comp"/>
  <text x="591" y="464" text-anchor="middle" font-size="9" class="text">D5</text>

  <!-- Right side pins -->
  <rect x="754" y="345" width="50" height="20" rx="4" fill="#c0392b" stroke="none"/>
  <text x="779" y="359" text-anchor="middle" font-size="10" font-weight="bold" fill="#fff">5V</text>

  <rect x="754" y="380" width="50" height="20" rx="4" fill="#2c3e50" stroke="none"/>
  <text x="779" y="394" text-anchor="middle" font-size="10" font-weight="bold" fill="#74b9ff">GND</text>

  <rect x="754" y="415" width="50" height="20" rx="4" class="comp"/>
  <text x="779" y="429" text-anchor="middle" font-size="9" class="text">D1</text>

  <!-- USB -->
  <rect x="665" y="505" width="40" height="18" rx="3" fill="#555" stroke="#777"/>
  <text x="685" y="518" text-anchor="middle" font-size="8" fill="#ddd">USB</text>

  <!-- ==================== WIRES TO MCU ==================== -->
  <!-- 5V -->
  <line x1="735" y1="148" x2="830" y2="148" class="wire-pwr"/>
  <line x1="830" y1="148" x2="830" y2="355" class="wire-pwr"/>
  <line x1="830" y1="355" x2="804" y2="355" class="wire-pwr"/>

  <!-- GND -->
  <line x1="735" y1="191" x2="840" y2="191" class="wire-gnd"/>
  <line x1="840" y1="191" x2="840" y2="390" class="wire-gnd"/>
  <line x1="840" y1="390" x2="804" y2="390" class="wire-gnd"/>

  <!-- Signal: divider MID to A0 -->
  <line x1="440" y1="355" x2="510" y2="355" class="wire-sig"/>
  <line x1="510" y1="355" x2="566" y2="355" class="wire-sig"/>

  <!-- Control: D3 to MOSFET gate (already drawn above) -->

  <!-- ==================== LEGEND ==================== -->
  <rect x="30" y="570" width="530" height="42" rx="4" class="legend-bg"/>
  <text x="42" y="588" font-size="10" font-weight="bold" class="text">Legend:</text>
  <line x1="100" y1="585" x2="125" y2="585" class="wire-pwr" stroke-width="2"/>
  <text x="130" y="589" font-size="9" class="text">V+ (power)</text>
  <line x1="210" y1="585" x2="235" y2="585" class="wire-gnd" stroke-width="2"/>
  <text x="240" y="589" font-size="9" class="text">GND</text>
  <line x1="290" y1="585" x2="315" y2="585" class="wire-sig" stroke-width="2"/>
  <text x="320" y="589" font-size="9" class="text">Signal (A0)</text>
  <line x1="400" y1="585" x2="425" y2="585" class="wire-ctrl" stroke-width="2"/>
  <text x="430" y="589" font-size="9" class="text">Control (D3 → MOSFET)</text>

  <!-- Note box -->
  <rect x="570" y="570" width="260" height="42" rx="4" class="legend-bg"/>
  <text x="700" y="586" text-anchor="middle" font-size="9" class="text">Q1 gate HIGH → divider ON → read A0</text>
  <text x="700" y="600" text-anchor="middle" font-size="9" class="text-dim">Deep sleep: gate LOW → 0µA divider drain</text>
</svg>
