<svg xmlns="http://www.w3.org/2000/svg" viewBox="0 0 900 600" font-family="monospace" font-size="11">
  <defs>
    <marker id="s-arr" markerWidth="7" markerHeight="5" refX="7" refY="2.5" orient="auto">
      <path d="M0,0 L7,2.5 L0,5 Z" class="text" fill="currentColor"/>
    </marker>
    <style>
      @media (prefers-color-scheme: dark) {
        .bg { fill: #1a1a2e; }
        .text { fill: #e0e0e0; }
        .text-dim { fill: #999; }
        .wire { stroke: #ccc; }
        .wire-pwr { stroke: #ff6b6b; }
        .wire-gnd { stroke: #74b9ff; }
        .wire-sig { stroke: #a29bfe; }
        .wire-data { stroke: #ffeaa7; }
        .block { fill: none; stroke: #888; }
        .block-fill { fill: #2a2a40; stroke: #888; }
        .res { fill: none; stroke: #ccc; }
        .cap { fill: none; stroke: #ccc; }
        .gnd-sym { stroke: #74b9ff; fill: none; }
      }
      @media (prefers-color-scheme: light) {
        .bg { fill: #ffffff; }
        .text { fill: #333; }
        .text-dim { fill: #777; }
        .wire { stroke: #333; }
        .wire-pwr { stroke: #c0392b; }
        .wire-gnd { stroke: #2c3e50; }
        .wire-sig { stroke: #2980b9; }
        .wire-data { stroke: #e17055; }
        .block { fill: none; stroke: #555; }
        .block-fill { fill: #f8f8f8; stroke: #555; }
        .res { fill: none; stroke: #333; }
        .cap { fill: none; stroke: #333; }
        .gnd-sym { stroke: #2c3e50; fill: none; }
      }
    </style>
  </defs>

  <!-- Background -->
  <rect width="900" height="600" class="bg"/>

  <!-- Title -->
  <text x="450" y="22" text-anchor="middle" font-size="14" font-weight="bold" class="text">7-Segment Display Module — Schematic</text>

  <!-- ========== MCU BLOCK ========== -->
  <rect x="20" y="50" width="90" height="180" rx="4" class="block-fill" stroke-width="1.5"/>
  <text x="65" y="68" text-anchor="middle" font-size="10" font-weight="bold" class="text">ESP8266</text>
  <text x="65" y="82" text-anchor="middle" font-size="8" class="text-dim">D1 Mini</text>
  <!-- GPIO labels on right side -->
  <text x="95" y="107" font-size="8" class="text">GPIO13</text>
  <text x="95" y="127" font-size="8" class="text">GPIO14</text>
  <text x="95" y="147" font-size="8" class="text">GPIO15</text>
  <text x="95" y="177" font-size="8" class="text">GPIO12</text>
  <text x="95" y="207" font-size="8" class="text">3V3</text>
  <text x="95" y="222" font-size="8" class="text">GND</text>
  <!-- Pin lines out -->
  <line x1="110" y1="104" x2="135" y2="104" stroke-width="1.5" class="wire-data"/>
  <line x1="110" y1="124" x2="135" y2="124" stroke-width="1.5" class="wire-sig"/>
  <line x1="110" y1="144" x2="135" y2="144" stroke-width="1.5" class="wire-sig"/>
  <line x1="110" y1="174" x2="135" y2="174" stroke-width="1.5" class="wire-sig"/>

  <!-- Signal labels -->
  <text x="140" y="101" font-size="7" class="wire-data" fill="currentColor">SER</text>
  <text x="140" y="121" font-size="7" class="wire-sig" fill="currentColor">SRCLK</text>
  <text x="140" y="141" font-size="7" class="wire-sig" fill="currentColor">RCLK</text>
  <text x="140" y="171" font-size="7" class="wire-sig" fill="currentColor">BTN</text>

  <!-- ========== HC595 #1 ========== -->
  <rect x="170" y="50" width="120" height="145" rx="4" class="block-fill" stroke-width="1.5"/>
  <text x="230" y="68" text-anchor="middle" font-size="9" font-weight="bold" class="text">SN74HC595N #1</text>
  <text x="230" y="80" text-anchor="middle" font-size="7" class="text-dim">8-bit Shift Reg</text>
  <!-- Left pins -->
  <text x="176" y="100" font-size="7" class="text">14 SER</text>
  <text x="176" y="115" font-size="7" class="text">11 SRCLK</text>
  <text x="176" y="130" font-size="7" class="text">12 RCLK</text>
  <text x="176" y="145" font-size="7" class="text">10 /MR</text>
  <text x="176" y="160" font-size="7" class="text">13 /OE</text>
  <!-- Right pins -->
  <text x="262" y="100" font-size="7" class="text">Q0</text>
  <text x="262" y="110" font-size="7" class="text">Q1</text>
  <text x="262" y="120" font-size="7" class="text">Q2</text>
  <text x="262" y="130" font-size="7" class="text">Q3</text>
  <text x="262" y="145" font-size="7" class="text">Q4</text>
  <text x="262" y="155" font-size="7" class="text">Q5</text>
  <text x="262" y="165" font-size="7" class="text">Q6</text>
  <text x="262" y="175" font-size="7" class="text">Q7</text>
  <text x="262" y="190" font-size="7" class="text">QH'</text>
  <!-- /MR to VCC, /OE to GND indicators -->
  <text x="176" y="185" font-size="6" class="wire-pwr" fill="currentColor">/MR->VCC</text>
  <text x="176" y="192" font-size="6" class="wire-gnd" fill="currentColor">/OE->GND</text>

  <!-- SER wire -->
  <line x1="135" y1="104" x2="155" y2="104" stroke-width="1.5" class="wire-data"/>
  <line x1="155" y1="104" x2="155" y2="97" stroke-width="1.5" class="wire-data"/>
  <line x1="155" y1="97" x2="170" y2="97" stroke-width="1.5" class="wire-data"/>
  <!-- SRCLK wire -->
  <line x1="135" y1="124" x2="160" y2="124" stroke-width="1.5" class="wire-sig"/>
  <line x1="160" y1="124" x2="160" y2="112" stroke-width="1.5" class="wire-sig"/>
  <line x1="160" y1="112" x2="170" y2="112" stroke-width="1.5" class="wire-sig"/>
  <!-- RCLK wire -->
  <line x1="135" y1="144" x2="165" y2="144" stroke-width="1.5" class="wire-sig"/>
  <line x1="165" y1="144" x2="165" y2="127" stroke-width="1.5" class="wire-sig"/>
  <line x1="165" y1="127" x2="170" y2="127" stroke-width="1.5" class="wire-sig"/>

  <!-- SRCLK branch down to HC595 #2 -->
  <line x1="160" y1="124" x2="160" y2="295" stroke-width="1" class="wire-sig" stroke-dasharray="3,2"/>
  <circle cx="160" cy="124" r="2" class="wire-sig" fill="currentColor"/>
  <!-- RCLK branch down to HC595 #2 -->
  <line x1="165" y1="144" x2="165" y2="310" stroke-width="1" class="wire-sig" stroke-dasharray="3,2"/>
  <circle cx="165" cy="144" r="2" class="wire-sig" fill="currentColor"/>

  <!-- ========== HC595 #2 ========== -->
  <rect x="170" y="250" width="120" height="130" rx="4" class="block-fill" stroke-width="1.5"/>
  <text x="230" y="268" text-anchor="middle" font-size="9" font-weight="bold" class="text">SN74HC595N #2</text>
  <text x="230" y="280" text-anchor="middle" font-size="7" class="text-dim">8-bit Shift Reg</text>
  <text x="176" y="298" font-size="7" class="text">14 SER</text>
  <text x="176" y="313" font-size="7" class="text">11 SRCLK</text>
  <text x="176" y="328" font-size="7" class="text">12 RCLK</text>
  <text x="262" y="298" font-size="7" class="text">Q0</text>
  <text x="262" y="308" font-size="7" class="text">Q1</text>
  <text x="262" y="318" font-size="7" class="text">Q2</text>
  <text x="262" y="328" font-size="7" class="text">Q3</text>
  <text x="262" y="345" font-size="7" class="text">Q4</text>
  <text x="262" y="355" font-size="7" class="text">Q5</text>
  <text x="262" y="365" font-size="7" class="text">Q6</text>

  <!-- QH' daisy chain: HC595#1 -> HC595#2 SER -->
  <line x1="290" y1="187" x2="300" y2="187" stroke-width="1.5" class="wire-data"/>
  <line x1="300" y1="187" x2="300" y2="235" stroke-width="1.5" class="wire-data"/>
  <line x1="300" y1="235" x2="155" y2="235" stroke-width="1.5" class="wire-data"/>
  <line x1="155" y1="235" x2="155" y2="295" stroke-width="1.5" class="wire-data"/>
  <line x1="155" y1="295" x2="170" y2="295" stroke-width="1.5" class="wire-data"/>
  <text x="305" y="215" font-size="7" class="wire-data" fill="currentColor">QH'->SER</text>

  <!-- SRCLK to HC595#2 -->
  <line x1="160" y1="295" x2="160" y2="310" stroke-width="1" class="wire-sig"/>
  <line x1="160" y1="310" x2="170" y2="310" stroke-width="1.5" class="wire-sig"/>
  <!-- RCLK to HC595#2 -->
  <line x1="165" y1="310" x2="165" y2="325" stroke-width="1" class="wire-sig"/>
  <line x1="165" y1="325" x2="170" y2="325" stroke-width="1.5" class="wire-sig"/>

  <!-- ========== LS04 INVERTERS (4 gates shown as block) ========== -->
  <!-- LS04 #1 for dig0 -->
  <rect x="330" y="75" width="70" height="35" rx="3" class="block-fill" stroke-width="1"/>
  <text x="365" y="90" text-anchor="middle" font-size="7" font-weight="bold" class="text">LS04 #1</text>
  <text x="365" y="102" text-anchor="middle" font-size="6" class="text-dim">4x INV</text>
  <!-- Inverter triangle symbol -->
  <polygon points="340,88 352,93 340,98" class="block" stroke-width="1"/>
  <circle cx="354" cy="93" r="2" class="block" stroke-width="1"/>

  <!-- HC595#1 Q0-Q3 -> LS04#1 -->
  <line x1="290" y1="97" x2="310" y2="97" stroke-width="1.5" class="wire-data"/>
  <line x1="310" y1="97" x2="310" y2="90" stroke-width="1.5" class="wire-data"/>
  <line x1="310" y1="90" x2="330" y2="90" stroke-width="1.5" class="wire-data"/>
  <text x="310" y="86" font-size="6" class="text-dim">Q0-Q3</text>

  <!-- LS04 #2 for dig1 -->
  <rect x="330" y="125" width="70" height="35" rx="3" class="block-fill" stroke-width="1"/>
  <text x="365" y="140" text-anchor="middle" font-size="7" font-weight="bold" class="text">LS04 #2</text>
  <text x="365" y="152" text-anchor="middle" font-size="6" class="text-dim">4x INV</text>
  <polygon points="340,138 352,143 340,148" class="block" stroke-width="1"/>
  <circle cx="354" cy="143" r="2" class="block" stroke-width="1"/>

  <!-- HC595#1 Q4-Q7 -> LS04#2 -->
  <line x1="290" y1="142" x2="310" y2="142" stroke-width="1.5" class="wire-data"/>
  <line x1="310" y1="142" x2="330" y2="142" stroke-width="1.5" class="wire-data"/>
  <text x="310" y="138" font-size="6" class="text-dim">Q4-Q7</text>

  <!-- ========== LS247 BCD DECODERS ========== -->
  <!-- LS247 #1 -->
  <rect x="440" y="60" width="100" height="55" rx="4" class="block-fill" stroke-width="1.5"/>
  <text x="490" y="78" text-anchor="middle" font-size="8" font-weight="bold" class="text">SN74LS247N #1</text>
  <text x="490" y="90" text-anchor="middle" font-size="7" class="text-dim">BCD-to-7seg</text>
  <text x="446" y="105" font-size="6" class="text">A B C D</text>
  <text x="510" y="105" font-size="6" class="text">a-g</text>

  <!-- LS04#1 -> LS247#1 -->
  <line x1="400" y1="90" x2="440" y2="90" stroke-width="1.5" class="wire-data"/>
  <text x="420" y="86" font-size="6" text-anchor="middle" class="text-dim">A-D</text>

  <!-- LS247 #2 -->
  <rect x="440" y="130" width="100" height="55" rx="4" class="block-fill" stroke-width="1.5"/>
  <text x="490" y="148" text-anchor="middle" font-size="8" font-weight="bold" class="text">SN74LS247N #2</text>
  <text x="490" y="160" text-anchor="middle" font-size="7" class="text-dim">BCD-to-7seg</text>
  <text x="446" y="175" font-size="6" class="text">A B C D</text>
  <text x="510" y="175" font-size="6" class="text">a-g</text>

  <!-- LS04#2 -> LS247#2 -->
  <line x1="400" y1="142" x2="420" y2="142" stroke-width="1.5" class="wire-data"/>
  <line x1="420" y1="142" x2="420" y2="155" stroke-width="1.5" class="wire-data"/>
  <line x1="420" y1="155" x2="440" y2="155" stroke-width="1.5" class="wire-data"/>

  <!-- LS247 #3 (direct from HC595#2) -->
  <rect x="440" y="270" width="100" height="55" rx="4" class="block-fill" stroke-width="1.5"/>
  <text x="490" y="288" text-anchor="middle" font-size="8" font-weight="bold" class="text">SN74LS247N #3</text>
  <text x="490" y="300" text-anchor="middle" font-size="7" class="text-dim">BCD-to-7seg</text>
  <text x="446" y="315" font-size="6" class="text">A B C D</text>
  <text x="510" y="315" font-size="6" class="text">a-g</text>

  <!-- HC595#2 Q0-Q3 -> LS247#3 (direct) -->
  <line x1="290" y1="310" x2="320" y2="310" stroke-width="1.5" class="wire-data"/>
  <line x1="320" y1="310" x2="320" y2="295" stroke-width="1.5" class="wire-data"/>
  <line x1="320" y1="295" x2="440" y2="295" stroke-width="1.5" class="wire-data"/>
  <text x="380" y="290" font-size="6" class="text-dim">Q0-Q3 (direct)</text>

  <!-- ========== 7-SEGMENT DISPLAYS ========== -->
  <!-- Digit 0 symbol -->
  <g transform="translate(600,55)">
    <rect width="55" height="65" rx="3" class="block-fill" stroke-width="1.5"/>
    <text x="27" y="14" text-anchor="middle" font-size="8" font-weight="bold" class="text">Dig 0</text>
    <text x="27" y="26" text-anchor="middle" font-size="6" class="text-dim">5082-7651</text>
    <text x="27" y="36" text-anchor="middle" font-size="6" class="text-dim">CC</text>
    <!-- 7-seg symbol -->
    <line x1="15" y1="42" x2="40" y2="42" stroke-width="2.5" class="wire"/>
    <line x1="12" y1="44" x2="12" y2="54" stroke-width="2" class="wire"/>
    <line x1="43" y1="44" x2="43" y2="54" stroke-width="2" class="wire"/>
    <line x1="15" y1="56" x2="40" y2="56" stroke-width="2.5" class="wire"/>
    <!-- 120 ohm resistor label -->
    <text x="27" y="64" text-anchor="middle" font-size="5" class="text-dim">120R</text>
  </g>

  <!-- LS247#1 -> Digit 0 -->
  <line x1="540" y1="90" x2="570" y2="90" stroke-width="1.5" class="wire"/>
  <line x1="570" y1="90" x2="570" y2="80" stroke-width="1.5" class="wire"/>
  <line x1="570" y1="80" x2="600" y2="80" stroke-width="1.5" class="wire"/>

  <!-- Digit 1 symbol -->
  <g transform="translate(600,130)">
    <rect width="55" height="65" rx="3" class="block-fill" stroke-width="1.5"/>
    <text x="27" y="14" text-anchor="middle" font-size="8" font-weight="bold" class="text">Dig 1</text>
    <text x="27" y="26" text-anchor="middle" font-size="6" class="text-dim">5082-7651</text>
    <text x="27" y="36" text-anchor="middle" font-size="6" class="text-dim">CC</text>
    <line x1="15" y1="42" x2="40" y2="42" stroke-width="2.5" class="wire"/>
    <line x1="12" y1="44" x2="12" y2="54" stroke-width="2" class="wire"/>
    <line x1="43" y1="44" x2="43" y2="54" stroke-width="2" class="wire"/>
    <line x1="15" y1="56" x2="40" y2="56" stroke-width="2.5" class="wire"/>
    <text x="27" y="64" text-anchor="middle" font-size="5" class="text-dim">120R</text>
  </g>

  <!-- LS247#2 -> Digit 1 -->
  <line x1="540" y1="155" x2="570" y2="155" stroke-width="1.5" class="wire"/>
  <line x1="570" y1="155" x2="600" y2="155" stroke-width="1.5" class="wire"/>

  <!-- Digit 2 symbol (CA) -->
  <g transform="translate(600,265)">
    <rect width="55" height="65" rx="3" class="block-fill" stroke-width="1.5"/>
    <text x="27" y="14" text-anchor="middle" font-size="8" font-weight="bold" class="text">Dig 2</text>
    <text x="27" y="26" text-anchor="middle" font-size="6" class="text-dim">5082-7653</text>
    <text x="27" y="36" text-anchor="middle" font-size="6" class="text-dim">CA</text>
    <line x1="15" y1="42" x2="40" y2="42" stroke-width="2.5" class="wire"/>
    <line x1="12" y1="44" x2="12" y2="54" stroke-width="2" class="wire"/>
    <line x1="43" y1="44" x2="43" y2="54" stroke-width="2" class="wire"/>
    <line x1="15" y1="56" x2="40" y2="56" stroke-width="2.5" class="wire"/>
    <text x="27" y="64" text-anchor="middle" font-size="5" class="text-dim">120R</text>
  </g>

  <!-- LS247#3 -> Digit 2 -->
  <line x1="540" y1="295" x2="570" y2="295" stroke-width="1.5" class="wire"/>
  <line x1="570" y1="295" x2="600" y2="295" stroke-width="1.5" class="wire"/>

  <!-- ========== DECIMAL POINT WIRES ========== -->
  <!-- HC595#2 Q4-Q6 -> DP labels -->
  <line x1="290" y1="342" x2="320" y2="342" stroke-width="1" class="wire-data"/>
  <line x1="320" y1="342" x2="320" y2="380" stroke-width="1" class="wire-data"/>
  <!-- DP0 line to digit 0 -->
  <line x1="320" y1="380" x2="625" y2="380" stroke-width="1" class="wire-data" stroke-dasharray="3,2"/>
  <text x="340" y="376" font-size="6" class="text-dim">Q4=DP0  Q5=DP1  Q6=DP2</text>

  <!-- ========== PUSH BUTTON + DEBOUNCE ========== -->
  <g transform="translate(30,340)">
    <text x="45" y="0" font-size="8" font-weight="bold" class="text">Push Button (D6 / GPIO12)</text>
    <!-- Button symbol -->
    <line x1="0" y1="20" x2="30" y2="20" stroke-width="1.5" class="wire-sig"/>
    <line x1="60" y1="20" x2="90" y2="20" stroke-width="1.5" class="wire-sig"/>
    <!-- Contacts -->
    <circle cx="32" cy="20" r="2.5" class="block" stroke-width="1.5"/>
    <circle cx="58" cy="20" r="2.5" class="block" stroke-width="1.5"/>
    <!-- Arm -->
    <line x1="34" y1="18" x2="56" y2="12" stroke-width="1.5" class="wire-sig"/>
    <text x="45" y="35" text-anchor="middle" font-size="7" class="text">SW1</text>

    <!-- To GPIO12 label -->
    <text x="-5" y="24" text-anchor="end" font-size="7" class="wire-sig" fill="currentColor">GPIO12</text>

    <!-- Debounce capacitor -->
    <!-- Cap symbol: two parallel lines -->
    <line x1="30" y1="40" x2="30" y2="55" stroke-width="1.5" class="wire-sig"/>
    <line x1="22" y1="55" x2="38" y2="55" stroke-width="2" class="cap"/>
    <line x1="22" y1="59" x2="38" y2="59" stroke-width="2" class="cap"/>
    <line x1="30" y1="59" x2="30" y2="72" stroke-width="1.5" class="wire-gnd"/>
    <!-- Junction dot -->
    <circle cx="30" cy="40" r="2" class="wire-sig" fill="currentColor"/>
    <line x1="30" y1="20" x2="30" y2="40" stroke-width="1.5" class="wire-sig"/>
    <text x="42" y="60" font-size="7" class="text">100nF</text>

    <!-- GND symbol -->
    <line x1="22" y1="72" x2="38" y2="72" stroke-width="1.5" class="gnd-sym"/>
    <line x1="25" y1="75" x2="35" y2="75" stroke-width="1.5" class="gnd-sym"/>
    <line x1="28" y1="78" x2="32" y2="78" stroke-width="1.5" class="gnd-sym"/>

    <!-- Pull-up resistor (internal) -->
    <line x1="60" y1="20" x2="90" y2="20" stroke-width="1.5" class="wire-gnd"/>
    <!-- GND symbol at button end -->
    <line x1="82" y1="28" x2="98" y2="28" stroke-width="1.5" class="gnd-sym"/>
    <line x1="85" y1="31" x2="95" y2="31" stroke-width="1.5" class="gnd-sym"/>
    <line x1="88" y1="34" x2="92" y2="34" stroke-width="1.5" class="gnd-sym"/>
    <line x1="90" y1="20" x2="90" y2="28" stroke-width="1.5" class="wire-gnd"/>
    <text x="95" y="18" font-size="6" class="text-dim">GND</text>

    <!-- Internal pull-up note -->
    <text x="0" y="47" font-size="6" class="text-dim">Internal pull-up</text>
    <text x="0" y="55" font-size="6" class="text-dim">(INPUT_PULLUP)</text>
  </g>

  <!-- ========== POWER RAILS ========== -->
  <!-- 3.3V rail -->
  <line x1="170" y1="42" x2="290" y2="42" stroke-width="2" class="wire-pwr"/>
  <text x="230" y="38" text-anchor="middle" font-size="8" font-weight="bold" class="wire-pwr" fill="currentColor">3.3V</text>
  <text x="230" y="50" text-anchor="middle" font-size="6" class="text-dim">(HC595 VCC)</text>

  <!-- 5V rail -->
  <line x1="330" y1="42" x2="655" y2="42" stroke-width="2" class="wire-pwr"/>
  <text x="490" y="38" text-anchor="middle" font-size="8" font-weight="bold" class="wire-pwr" fill="currentColor">5V (H78M05BT)</text>
  <text x="490" y="50" text-anchor="middle" font-size="6" class="text-dim">(LS04, LS247, Displays VCC)</text>

  <!-- GND rail at bottom -->
  <line x1="20" y1="460" x2="655" y2="460" stroke-width="2" class="wire-gnd"/>
  <text x="340" y="475" text-anchor="middle" font-size="8" font-weight="bold" class="wire-gnd" fill="currentColor">GND</text>
  <!-- GND drops from components -->
  <line x1="230" y1="195" x2="230" y2="210" stroke-width="1" class="wire-gnd" stroke-dasharray="2,2"/>
  <line x1="230" y1="210" x2="230" y2="230" stroke-width="1" class="wire-gnd" stroke-dasharray="2,2"/>
  <text x="237" y="220" font-size="6" class="wire-gnd" fill="currentColor">GND</text>

  <!-- ========== 120 OHM RESISTORS ========== -->
  <!-- Resistor symbols on common pins -->
  <g transform="translate(660,85)">
    <!-- Zigzag resistor -->
    <line x1="0" y1="0" x2="5" y2="0" stroke-width="1" class="res"/>
    <polyline points="5,0 8,-5 14,5 20,-5 26,5 30,0" stroke-width="1" class="res"/>
    <line x1="30" y1="0" x2="35" y2="0" stroke-width="1" class="res"/>
    <text x="17" y="-8" text-anchor="middle" font-size="6" class="text">120R</text>
  </g>
  <g transform="translate(660,160)">
    <line x1="0" y1="0" x2="5" y2="0" stroke-width="1" class="res"/>
    <polyline points="5,0 8,-5 14,5 20,-5 26,5 30,0" stroke-width="1" class="res"/>
    <line x1="30" y1="0" x2="35" y2="0" stroke-width="1" class="res"/>
    <text x="17" y="-8" text-anchor="middle" font-size="6" class="text">120R</text>
  </g>
  <g transform="translate(660,300)">
    <line x1="0" y1="0" x2="5" y2="0" stroke-width="1" class="res"/>
    <polyline points="5,0 8,-5 14,5 20,-5 26,5 30,0" stroke-width="1" class="res"/>
    <line x1="30" y1="0" x2="35" y2="0" stroke-width="1" class="res"/>
    <text x="17" y="-8" text-anchor="middle" font-size="6" class="text">120R</text>
  </g>

  <!-- Connect resistors to display common pins -->
  <line x1="655" y1="85" x2="660" y2="85" stroke-width="1" class="wire"/>
  <line x1="695" y1="85" x2="700" y2="85" stroke-width="1" class="wire"/>
  <line x1="655" y1="160" x2="660" y2="160" stroke-width="1" class="wire"/>
  <line x1="695" y1="160" x2="700" y2="160" stroke-width="1" class="wire"/>
  <line x1="655" y1="300" x2="660" y2="300" stroke-width="1" class="wire"/>
  <line x1="695" y1="300" x2="700" y2="300" stroke-width="1" class="wire"/>

  <!-- CC displays: common cathode to GND via resistor -->
  <line x1="700" y1="85" x2="720" y2="85" stroke-width="1" class="wire-gnd"/>
  <line x1="720" y1="85" x2="720" y2="460" stroke-width="1" class="wire-gnd" stroke-dasharray="2,2"/>
  <line x1="700" y1="160" x2="730" y2="160" stroke-width="1" class="wire-gnd"/>
  <line x1="730" y1="160" x2="730" y2="460" stroke-width="1" class="wire-gnd" stroke-dasharray="2,2"/>
  <text x="735" y="388" font-size="6" class="wire-gnd" fill="currentColor">CC->GND</text>

  <!-- CA display: common anode to 5V via resistor -->
  <line x1="700" y1="300" x2="720" y2="300" stroke-width="1" class="wire-pwr"/>
  <line x1="720" y1="300" x2="720" y2="42" stroke-width="1" class="wire-pwr" stroke-dasharray="2,2"/>
  <text x="725" y="180" font-size="6" class="wire-pwr" fill="currentColor">CA->5V</text>

  <!-- ========== LEGEND ========== -->
  <rect x="720" y="400" width="170" height="130" rx="6" class="block-fill" stroke-width="1"/>
  <text x="805" y="418" text-anchor="middle" font-size="9" font-weight="bold" class="text">Legend</text>
  <line x1="730" y1="432" x2="755" y2="432" stroke-width="2" class="wire-data"/>
  <text x="760" y="435" font-size="7" class="text">Data (SER, BCD)</text>
  <line x1="730" y1="448" x2="755" y2="448" stroke-width="2" class="wire-sig"/>
  <text x="760" y="451" font-size="7" class="text">Control (CLK, BTN)</text>
  <line x1="730" y1="464" x2="755" y2="464" stroke-width="2" class="wire-pwr"/>
  <text x="760" y="467" font-size="7" class="text">Power (3.3V / 5V)</text>
  <line x1="730" y1="480" x2="755" y2="480" stroke-width="2" class="wire-gnd"/>
  <text x="760" y="483" font-size="7" class="text">Ground</text>
  <line x1="730" y1="496" x2="755" y2="496" stroke-width="1.5" class="wire"/>
  <text x="760" y="499" font-size="7" class="text">Segment (a-g)</text>
  <line x1="730" y1="512" x2="755" y2="512" stroke-width="1" class="wire" stroke-dasharray="3,2"/>
  <text x="760" y="515" font-size="7" class="text">Power connection</text>

  <!-- ========== NOTES ========== -->
  <text x="450" y="555" text-anchor="middle" font-size="8" class="text-dim">Digits 0,1 (CC): LS247 active-low outputs inverted by LS04 for active-high drive</text>
  <text x="450" y="568" text-anchor="middle" font-size="8" class="text-dim">Digit 2 (CA): LS247 active-low outputs drive common-anode display directly</text>
  <text x="450" y="581" text-anchor="middle" font-size="8" class="text-dim">HC595 at 3.3V: outputs are TTL-compatible with 5V LS-series inputs (V_IH = 2.0V)</text>
</svg>
